<svg width="12" height="12" viewBox="0 0 12 12" fill="none" xmlns="http://www.w3.org/2000/svg">
<path d="M6.53885 3.89629L6.62025 4.29575L6.93938 4.04207L9.05193 2.36277L7.76498 4.73483L7.57057 5.09316L7.9781 5.10396L10.6759 5.17547L8.16525 6.16534L7.78599 6.31487L8.09123 6.5851L10.1119 8.37395L7.55236 7.51846L7.16571 7.38923L7.22584 7.79244L7.62388 10.4617L6.21309 8.16105L5.99997 7.81352L5.78685 8.16105L4.37606 10.4617L4.7741 7.79244L4.83423 7.38923L4.44758 7.51846L1.88808 8.37395L3.90871 6.5851L4.21395 6.31487L3.83469 6.16534L1.3241 5.17547L4.02184 5.10396L4.42937 5.09316L4.23496 4.73483L2.94801 2.36277L5.06056 4.04207L5.37969 4.29575L5.46109 3.89629L5.99997 1.25195L6.53885 3.89629Z" fill="#EE9052" stroke="#EE9052" stroke-width="0.5"/>
</svg>
