<svg width="12" height="12" viewBox="0 0 12 12" fill="none" xmlns="http://www.w3.org/2000/svg">
<path d="M6.53888 3.89634L6.62028 4.2958L6.93941 4.04212L9.05196 2.36282L7.76501 4.73488L7.5706 5.09321L7.97813 5.10401L10.6759 5.17552L8.16528 6.16539L7.78602 6.31492L8.09126 6.58515L10.1119 8.374L7.55239 7.51851L7.16574 7.38928L7.22587 7.79249L7.62391 10.4617L6.21312 8.1611L6 7.81357L5.78688 8.1611L4.37609 10.4617L4.77413 7.79249L4.83426 7.38928L4.44761 7.51851L1.88811 8.374L3.90874 6.58515L4.21398 6.31492L3.83472 6.16539L1.32413 5.17552L4.02187 5.10401L4.4294 5.09321L4.23499 4.73488L2.94804 2.36282L5.06059 4.04212L5.37972 4.2958L5.46112 3.89634L6 1.252L6.53888 3.89634Z" fill="#DB1C20" stroke="#F01D23" stroke-width="0.5"/>
</svg>
