<svg width="215" height="32" viewBox="0 0 215 32" fill="none" xmlns="http://www.w3.org/2000/svg">
<path d="M0.96 26C0.832 26 0.72 25.952 0.624 25.856C0.528 25.76 0.48 25.648 0.48 25.52C0.48 25.392 0.488 25.304 0.504 25.256L6.456 9.728C6.584 9.376 6.84 9.2 7.224 9.2H8.856C9.24 9.2 9.496 9.376 9.624 9.728L15.552 25.256L15.6 25.52C15.6 25.648 15.552 25.76 15.456 25.856C15.36 25.952 15.248 26 15.12 26H13.896C13.72 26 13.584 25.96 13.488 25.88C13.392 25.784 13.328 25.688 13.296 25.592L11.976 22.184H4.104L2.784 25.592C2.752 25.688 2.68 25.784 2.568 25.88C2.472 25.96 2.344 26 2.184 26H0.96ZM11.28 20.12L8.04 11.6L4.8 20.12H11.28ZM17.0381 26C16.9101 26 16.7981 25.952 16.7021 25.856C16.6061 25.76 16.5581 25.648 16.5581 25.52C16.5581 25.392 16.5661 25.304 16.5821 25.256L22.5341 9.728C22.6621 9.376 22.9181 9.2 23.3021 9.2H24.9341C25.3181 9.2 25.5741 9.376 25.7021 9.728L31.6301 25.256L31.6781 25.52C31.6781 25.648 31.6301 25.76 31.5341 25.856C31.4381 25.952 31.3261 26 31.1981 26H29.9741C29.7981 26 29.6621 25.96 29.5661 25.88C29.4701 25.784 29.4061 25.688 29.3741 25.592L28.0541 22.184H20.1821L18.8621 25.592C18.8301 25.688 18.7581 25.784 18.6461 25.88C18.5501 25.96 18.4221 26 18.2621 26H17.0381ZM27.3581 20.12L24.1181 11.6L20.8781 20.12H27.3581ZM39.4099 26.24C38.0819 26.24 36.9299 26.032 35.9539 25.616C34.9939 25.2 34.2579 24.656 33.7459 23.984C33.2339 23.296 32.9619 22.56 32.9299 21.776C32.9299 21.648 32.9779 21.536 33.0739 21.44C33.1859 21.328 33.3139 21.272 33.4579 21.272H34.6819C34.9859 21.272 35.1939 21.432 35.3059 21.752C35.4499 22.424 35.8579 23 36.5299 23.48C37.2179 23.96 38.1779 24.2 39.4099 24.2C40.7379 24.2 41.7379 23.968 42.4099 23.504C43.0819 23.024 43.4179 22.36 43.4179 21.512C43.4179 20.968 43.2499 20.528 42.9139 20.192C42.5939 19.856 42.1139 19.56 41.4739 19.304C40.8339 19.048 39.8739 18.728 38.5939 18.344C37.3459 17.992 36.3539 17.616 35.6179 17.216C34.8819 16.816 34.3299 16.32 33.9619 15.728C33.5939 15.136 33.4099 14.392 33.4099 13.496C33.4099 12.632 33.6419 11.856 34.1059 11.168C34.5859 10.48 35.2659 9.944 36.1459 9.56C37.0259 9.16 38.0739 8.96 39.2899 8.96C40.5379 8.96 41.6099 9.184 42.5059 9.632C43.4019 10.064 44.0819 10.616 44.5459 11.288C45.0099 11.96 45.2579 12.632 45.2899 13.304C45.2899 13.432 45.2419 13.544 45.1459 13.64C45.0659 13.736 44.9459 13.784 44.7859 13.784H43.5139C43.1779 13.784 42.9699 13.632 42.8899 13.328C42.7939 12.656 42.4179 12.104 41.7619 11.672C41.1059 11.224 40.2819 11 39.2899 11C38.2019 11 37.3459 11.208 36.7219 11.624C36.0979 12.04 35.7859 12.656 35.7859 13.472C35.7859 14.016 35.9299 14.464 36.2179 14.816C36.5219 15.168 36.9779 15.48 37.5859 15.752C38.1939 16.008 39.0819 16.304 40.2499 16.64C41.6099 17.008 42.6819 17.392 43.4659 17.792C44.2499 18.176 44.8339 18.664 45.2179 19.256C45.6019 19.832 45.7939 20.568 45.7939 21.464C45.7939 22.952 45.2179 24.12 44.0659 24.968C42.9139 25.816 41.3619 26.24 39.4099 26.24ZM49.4916 26C49.3316 26 49.1956 25.952 49.0836 25.856C48.9876 25.744 48.9396 25.608 48.9396 25.448V9.776C48.9396 9.6 48.9876 9.464 49.0836 9.368C49.1956 9.256 49.3316 9.2 49.4916 9.2H50.7156C50.8916 9.2 51.0276 9.256 51.1236 9.368C51.2356 9.464 51.2916 9.6 51.2916 9.776V16.4H59.5476V9.776C59.5476 9.6 59.5956 9.464 59.6916 9.368C59.8036 9.256 59.9396 9.2 60.0996 9.2H61.3236C61.4996 9.2 61.6356 9.256 61.7316 9.368C61.8436 9.464 61.8996 9.6 61.8996 9.776V25.448C61.8996 25.608 61.8436 25.744 61.7316 25.856C61.6196 25.952 61.4836 26 61.3236 26H60.0996C59.9396 26 59.8036 25.952 59.6916 25.856C59.5956 25.744 59.5476 25.608 59.5476 25.448V18.56H51.2916V25.448C51.2916 25.608 51.2356 25.744 51.1236 25.856C51.0116 25.952 50.8756 26 50.7156 26H49.4916ZM66.6244 26C66.4644 26 66.3284 25.952 66.2164 25.856C66.1204 25.744 66.0724 25.608 66.0724 25.448V9.752C66.0724 9.592 66.1204 9.464 66.2164 9.368C66.3284 9.256 66.4644 9.2 66.6244 9.2H67.8964C68.0564 9.2 68.1844 9.256 68.2804 9.368C68.3924 9.464 68.4484 9.592 68.4484 9.752V25.448C68.4484 25.608 68.3924 25.744 68.2804 25.856C68.1844 25.952 68.0564 26 67.8964 26H66.6244ZM78.0349 26.24C76.7069 26.24 75.5549 26.032 74.5789 25.616C73.6189 25.2 72.8829 24.656 72.3709 23.984C71.8589 23.296 71.5869 22.56 71.5549 21.776C71.5549 21.648 71.6029 21.536 71.6989 21.44C71.8109 21.328 71.9389 21.272 72.0829 21.272H73.3069C73.6109 21.272 73.8189 21.432 73.9309 21.752C74.0749 22.424 74.4829 23 75.1549 23.48C75.8429 23.96 76.8029 24.2 78.0349 24.2C79.3629 24.2 80.3629 23.968 81.0349 23.504C81.7069 23.024 82.0429 22.36 82.0429 21.512C82.0429 20.968 81.8749 20.528 81.5389 20.192C81.2189 19.856 80.7389 19.56 80.0989 19.304C79.4589 19.048 78.4989 18.728 77.2189 18.344C75.9709 17.992 74.9789 17.616 74.2429 17.216C73.5069 16.816 72.9549 16.32 72.5869 15.728C72.2189 15.136 72.0349 14.392 72.0349 13.496C72.0349 12.632 72.2669 11.856 72.7309 11.168C73.2109 10.48 73.8909 9.944 74.7709 9.56C75.6509 9.16 76.6989 8.96 77.9149 8.96C79.1629 8.96 80.2349 9.184 81.1309 9.632C82.0269 10.064 82.7069 10.616 83.1709 11.288C83.6349 11.96 83.8829 12.632 83.9149 13.304C83.9149 13.432 83.8669 13.544 83.7709 13.64C83.6909 13.736 83.5709 13.784 83.4109 13.784H82.1389C81.8029 13.784 81.5949 13.632 81.5149 13.328C81.4189 12.656 81.0429 12.104 80.3869 11.672C79.7309 11.224 78.9069 11 77.9149 11C76.8269 11 75.9709 11.208 75.3469 11.624C74.7229 12.04 74.4109 12.656 74.4109 13.472C74.4109 14.016 74.5549 14.464 74.8429 14.816C75.1469 15.168 75.6029 15.48 76.2109 15.752C76.8189 16.008 77.7069 16.304 78.8749 16.64C80.2349 17.008 81.3069 17.392 82.0909 17.792C82.8749 18.176 83.4589 18.664 83.8429 19.256C84.2269 19.832 84.4189 20.568 84.4189 21.464C84.4189 22.952 83.8429 24.12 82.6909 24.968C81.5389 25.816 79.9869 26.24 78.0349 26.24ZM88.1166 26C87.9566 26 87.8206 25.952 87.7086 25.856C87.6126 25.744 87.5646 25.608 87.5646 25.448V9.776C87.5646 9.6 87.6126 9.464 87.7086 9.368C87.8206 9.256 87.9566 9.2 88.1166 9.2H89.3406C89.5166 9.2 89.6526 9.256 89.7486 9.368C89.8606 9.464 89.9166 9.6 89.9166 9.776V16.4H98.1726V9.776C98.1726 9.6 98.2206 9.464 98.3166 9.368C98.4286 9.256 98.5646 9.2 98.7246 9.2H99.9486C100.125 9.2 100.261 9.256 100.357 9.368C100.469 9.464 100.525 9.6 100.525 9.776V25.448C100.525 25.608 100.469 25.744 100.357 25.856C100.245 25.952 100.109 26 99.9486 26H98.7246C98.5646 26 98.4286 25.952 98.3166 25.856C98.2206 25.744 98.1726 25.608 98.1726 25.448V18.56H89.9166V25.448C89.9166 25.608 89.8606 25.744 89.7486 25.856C89.6366 25.952 89.5006 26 89.3406 26H88.1166Z" fill="white"/>
<path d="M148.216 22.112L147.616 23.864C147.04 25.512 146.072 26.336 144.712 26.336C143.992 26.336 143.496 26.12 143.224 25.688C143.08 25.448 143.008 25.168 143.008 24.848C143.008 24.416 143.144 23.792 143.416 22.976L145.696 16.112C145.856 15.632 145.936 15.208 145.936 14.84C145.936 14.344 145.76 14.096 145.408 14.096C144.496 14.096 143.464 15.144 142.312 17.24C141.176 19.32 140.072 22.08 139 25.52L139.024 25.376L138.856 26H136.696L139.696 16.112C139.856 15.632 139.936 15.224 139.936 14.888C139.936 14.36 139.712 14.096 139.264 14.096C138.672 14.096 138.008 14.568 137.272 15.512C136.536 16.44 135.808 17.712 135.088 19.328C134.384 20.944 133.768 22.728 133.24 24.68L132.904 26H130.816L133.696 15.704C133.808 15.256 133.864 14.96 133.864 14.816C133.864 14.416 133.696 14.216 133.36 14.216C133.008 14.216 132.68 14.408 132.376 14.792C132.088 15.16 131.792 15.784 131.488 16.664L131.176 17.552H130.72L131.32 15.8C131.896 14.152 132.864 13.328 134.224 13.328C135.152 13.328 135.616 13.808 135.616 14.768C135.616 15.184 135.496 15.824 135.256 16.688L134.488 19.736C135.448 17.4 136.352 15.752 137.2 14.792C138.048 13.816 139 13.328 140.056 13.328C141.112 13.328 141.64 13.888 141.64 15.008C141.64 15.504 141.528 16.152 141.304 16.952L140.44 20.168C141.112 18.488 141.744 17.16 142.336 16.184C142.928 15.192 143.528 14.472 144.136 14.024C144.76 13.56 145.448 13.328 146.2 13.328C147.32 13.328 147.88 13.928 147.88 15.128C147.88 15.64 147.768 16.248 147.544 16.952L145.216 23.96C145.088 24.376 145.024 24.68 145.024 24.872C145.024 25.256 145.216 25.448 145.6 25.448C145.92 25.448 146.224 25.272 146.512 24.92C146.816 24.552 147.128 23.912 147.448 23L147.76 22.112H148.216ZM159.39 14.912C159.39 16.208 158.662 17.344 157.206 18.32C155.75 19.296 154.086 20.088 152.214 20.696C152.038 21.496 151.95 22.272 151.95 23.024C151.95 24.56 152.502 25.328 153.606 25.328C154.982 25.328 156.214 24.528 157.302 22.928L157.686 23.12C157.174 24 156.478 24.76 155.598 25.4C154.734 26.024 153.822 26.336 152.862 26.336C151.87 26.336 151.094 26.048 150.534 25.472C149.974 24.896 149.694 24.056 149.694 22.952C149.694 21.736 150.046 20.368 150.75 18.848C151.47 17.312 152.438 16.008 153.654 14.936C154.87 13.864 156.19 13.328 157.614 13.328C158.126 13.328 158.55 13.464 158.886 13.736C159.222 14.008 159.39 14.4 159.39 14.912ZM157.086 13.784C156.574 13.784 155.998 14.088 155.358 14.696C154.734 15.288 154.142 16.08 153.582 17.072C153.038 18.064 152.622 19.12 152.334 20.24C153.854 19.712 154.942 19.2 155.598 18.704C156.19 18.24 156.646 17.68 156.966 17.024C157.302 16.352 157.47 15.632 157.47 14.864C157.47 14.432 157.438 14.144 157.374 14C157.31 13.856 157.214 13.784 157.086 13.784ZM162.599 23.96C162.551 24.152 162.527 24.328 162.527 24.488C162.527 24.808 162.623 25.048 162.815 25.208C163.007 25.368 163.255 25.448 163.559 25.448C163.959 25.448 164.327 25.28 164.663 24.944C165.015 24.592 165.359 23.96 165.695 23.048L166.031 22.112H166.487L165.983 23.624C165.647 24.616 165.207 25.32 164.663 25.736C164.135 26.136 163.479 26.336 162.695 26.336C161.975 26.336 161.439 26.16 161.087 25.808C160.735 25.456 160.559 24.968 160.559 24.344C160.559 23.928 160.631 23.472 160.775 22.976L163.319 14.144H161.159L161.279 13.664H163.439L164.495 10.016C165.359 9.984 166.079 9.872 166.655 9.68L165.527 13.664H168.695L168.623 14.144H165.383L162.599 23.96ZM179.422 22.112L178.822 23.864C178.246 25.512 177.278 26.336 175.918 26.336C174.798 26.336 174.238 25.84 174.238 24.848C174.238 24.368 174.366 23.744 174.622 22.976L176.902 16.112C177.062 15.664 177.142 15.264 177.142 14.912C177.142 14.368 176.886 14.096 176.374 14.096C175.782 14.096 175.142 14.472 174.454 15.224C173.782 15.96 173.102 17 172.414 18.344C171.726 19.688 171.086 21.248 170.494 23.024L169.63 26H167.542L172.294 9.992C172.374 9.72 172.414 9.504 172.414 9.344C172.414 9.024 172.286 8.792 172.03 8.648C171.774 8.488 171.35 8.408 170.758 8.408L170.902 7.904C172.566 7.888 174.006 7.56 175.222 6.92L171.742 18.824C172.606 16.872 173.47 15.472 174.334 14.624C175.198 13.76 176.142 13.328 177.166 13.328C178.462 13.328 179.11 13.936 179.11 15.152C179.11 15.664 178.99 16.264 178.75 16.952L176.422 23.96C176.294 24.344 176.23 24.648 176.23 24.872C176.23 25.256 176.422 25.448 176.806 25.448C177.126 25.448 177.43 25.272 177.718 24.92C178.022 24.552 178.334 23.912 178.654 23L178.966 22.112H179.422ZM191.545 22.088H192.001L191.401 23.84C191.081 24.72 190.673 25.36 190.177 25.76C189.681 26.144 189.169 26.336 188.641 26.336C188.337 26.336 188.073 26.28 187.849 26.168C187.625 26.056 187.449 25.904 187.321 25.712C187.177 25.472 187.105 25.192 187.105 24.872C187.105 24.536 187.161 24.16 187.273 23.744C187.385 23.328 187.457 23.064 187.489 22.952L187.921 21.224C187.153 23.016 186.369 24.32 185.569 25.136C184.785 25.936 183.961 26.336 183.097 26.336C182.361 26.336 181.801 26.072 181.417 25.544C181.033 25.016 180.841 24.312 180.841 23.432C180.841 22.136 181.185 20.688 181.873 19.088C182.561 17.488 183.457 16.128 184.561 15.008C185.665 13.888 186.785 13.328 187.921 13.328C188.353 13.328 188.705 13.488 188.977 13.808C189.249 14.128 189.409 14.576 189.457 15.152L189.841 13.664C190.721 13.632 191.457 13.52 192.049 13.328L189.049 23.936C189.033 24 189.001 24.128 188.953 24.32C188.905 24.496 188.881 24.664 188.881 24.824C188.881 25.224 189.057 25.424 189.409 25.424C190.113 25.424 190.729 24.608 191.257 22.976L191.545 22.088ZM183.793 25.568C184.241 25.568 184.777 25.224 185.401 24.536C186.025 23.848 186.633 22.936 187.225 21.8C187.833 20.648 188.329 19.424 188.713 18.128L189.145 16.424C189.161 16.296 189.169 16.12 189.169 15.896C189.169 15.24 189.049 14.728 188.809 14.36C188.585 13.976 188.265 13.784 187.849 13.784C187.161 13.784 186.433 14.32 185.665 15.392C184.897 16.448 184.249 17.76 183.721 19.328C183.209 20.88 182.953 22.344 182.953 23.72C182.953 24.376 183.025 24.848 183.169 25.136C183.313 25.424 183.521 25.568 183.793 25.568ZM205.908 22.112L205.307 23.864C204.732 25.512 203.764 26.336 202.404 26.336C201.684 26.336 201.18 26.104 200.892 25.64C200.764 25.448 200.7 25.184 200.7 24.848C200.7 24.416 200.836 23.792 201.108 22.976L203.388 16.112C203.548 15.584 203.628 15.192 203.628 14.936C203.628 14.376 203.372 14.096 202.86 14.096C202.252 14.096 201.556 14.544 200.772 15.44C200.004 16.32 199.244 17.536 198.492 19.088C197.74 20.64 197.092 22.36 196.548 24.248L196.116 26H194.028L196.908 15.704C197.02 15.288 197.076 14.992 197.076 14.816C197.076 14.416 196.9 14.216 196.548 14.216C196.196 14.216 195.884 14.392 195.612 14.744C195.34 15.096 195.036 15.736 194.7 16.664L194.388 17.552H193.932L194.532 15.8C195.108 14.152 196.06 13.328 197.388 13.328C197.9 13.328 198.26 13.456 198.468 13.712C198.692 13.952 198.804 14.296 198.804 14.744C198.804 15.176 198.692 15.824 198.468 16.688L197.628 19.976C198.652 17.56 199.628 15.848 200.556 14.84C201.5 13.832 202.532 13.328 203.652 13.328C204.948 13.328 205.596 13.928 205.596 15.128C205.596 15.656 205.476 16.264 205.236 16.952L202.908 23.96C202.78 24.344 202.716 24.648 202.716 24.872C202.716 25.256 202.908 25.448 203.292 25.448C203.612 25.448 203.916 25.272 204.204 24.92C204.508 24.552 204.82 23.912 205.14 23L205.452 22.112H205.908ZM211.621 9.608C211.621 9.128 211.797 8.704 212.149 8.336C212.517 7.952 212.933 7.76 213.397 7.76C213.765 7.76 214.061 7.88 214.285 8.12C214.509 8.36 214.621 8.656 214.621 9.008C214.621 9.488 214.437 9.912 214.069 10.28C213.701 10.648 213.285 10.832 212.821 10.832C212.469 10.832 212.181 10.72 211.957 10.496C211.733 10.256 211.621 9.96 211.621 9.608ZM210.901 15.704C211.029 15.32 211.093 15.024 211.093 14.816C211.093 14.416 210.917 14.216 210.565 14.216C210.197 14.216 209.869 14.408 209.581 14.792C209.293 15.176 208.989 15.8 208.669 16.664L208.333 17.552H207.877L208.501 15.8C208.821 14.888 209.245 14.248 209.773 13.88C210.317 13.512 210.885 13.328 211.477 13.328C212.533 13.328 213.061 13.832 213.061 14.84C213.061 15.368 212.933 15.984 212.677 16.688L210.109 23.96C209.981 24.344 209.917 24.64 209.917 24.848C209.917 25.248 210.109 25.448 210.493 25.448C210.829 25.448 211.141 25.264 211.429 24.896C211.717 24.528 212.029 23.896 212.365 23L212.701 22.112H213.157L212.533 23.864C212.213 24.744 211.789 25.376 211.261 25.76C210.749 26.144 210.189 26.336 209.581 26.336C208.461 26.336 207.901 25.848 207.901 24.872C207.901 24.408 208.045 23.776 208.333 22.976L210.901 15.704Z" fill="white"/>
<path d="M117.496 13.1401L117.578 13.5395L117.897 13.2859L121.802 10.1817L119.423 14.5664L119.228 14.9248L119.636 14.9356L124.623 15.0677L119.982 16.8975L119.603 17.0471L119.908 17.3173L123.643 20.624L118.912 19.0426L118.525 18.9134L118.585 19.3166L119.321 24.2506L116.713 19.998L116.5 19.6505L116.287 19.998L113.679 24.2506L114.415 19.3166L114.475 18.9134L114.088 19.0426L109.357 20.624L113.092 17.3173L113.397 17.0471L113.018 16.8975L108.377 15.0677L113.364 14.9356L113.772 14.9248L113.577 14.5664L111.198 10.1817L115.103 13.2859L115.422 13.5395L115.504 13.1401L116.5 8.252L117.496 13.1401Z" fill="white" stroke="white" stroke-width="0.5"/>
</svg>
